# xmcd CD database file generated by OrangeCD 4.2
#
# Track frame offsets:
#	150
#	20271
#	40130
#	60215
#	82362
#	98315
#	109348
#	126293
#	148185
#
# Disc length: 2242 seconds
#
# Revision: 0
# Processed by: cddbd v1.4PL0 Copyright (c) Steve Scherf et al.
# Submitted via: OrangeCD 4.2
#
DISCID=7208c009
DTITLE=Kathleen Edwards - Failer
DYEAR=1900
DGENRE=Country
TTITLE0=Six O'Clock News
TTITLE1=One More Song The Radio Won't Like
TTITLE2=Hockey Skates
TTITLE3=The Lone Wolf
TTITLE4=Mercury
TTITLE5=Westby
TTITLE6=Maria
TTITLE7=National Steel
TTITLE8=Sweet Lil' Duck
EXTD=
EXTT0=
EXTT1=
EXTT2=
EXTT3=
EXTT4=
EXTT5=
EXTT6=
EXTT7=
EXTT8=
PLAYORDER=
